<?xml version="1.0" encoding="iso-8859-1"?>
<!DOCTYPE svg PUBLIC "-//W3C//DTD SVG 1.1//EN" "http://www.w3.org/Graphics/SVG/1.1/DTD/svg11.dtd">
<svg 
 version="1.1" xmlns="http://www.w3.org/2000/svg" xmlns:xlink="http://www.w3.org/1999/xlink" x="0px" y="0px" width="512px"
	 height="512px" viewBox="0 0 512 512" style="enable-background:new 0 0 512 512;" xml:space="preserve"
><g id="afcae5a789ccd549f9c6e2a2f8097b8c"><g></g><path style="display: inline;" d="M511.5,189.367l-29.891-29.891l-59.781,59.778l-29.886-29.888l59.776-59.781l-74.722-74.724
		l-59.78,59.78l-14.945-14.945l-29.887,29.889l29.856,29.856c-1.987,1.589-11.067,8.281-31.444,15.652
		c-22.034,7.97-44.348,1.591-44.568,1.524l-18.381-5.593l-7.313,17.763L95.919,442.852l-19.313,46.903l46.904-19.315
		l254.065-104.611l17.761-7.313l-5.594-18.382c-0.029-0.102-6.408-22.628,1.525-44.567c7.368-20.377,14.058-29.458,15.649-31.445
		l29.856,29.856l29.891-29.886l-14.945-14.945L511.5,189.367z M371.392,288.375c-10.584,29.266-1.869,57.908-1.869,57.908
		l-228.65,94.156l132.813-132.821c11.781,5.623,26.306,3.589,36.057-6.167c12.385-12.384,12.385-32.453,0-44.835
		c-12.375-12.38-32.446-12.38-44.831,0c-9.76,9.757-11.79,24.275-6.167,36.061L125.922,425.489l94.157-228.652
		c0,0,28.642,8.72,57.907-1.866c29.267-10.588,39.23-20.549,39.23-20.549l22.139,22.14l52.587,52.584
		C391.934,249.154,381.975,259.12,371.392,288.375z M16.859,80.009C5.851,66.199,0.5,50.861,0.5,33.117
		c0-6.005,4.867-10.872,10.872-10.872c6.005,0,10.873,4.867,10.873,10.872c0,12.801,3.693,23.393,11.62,33.339
		c3.742,4.695,2.971,11.535-1.726,15.279c-2,1.595-4.394,2.369-6.77,2.369C22.172,84.104,19.006,82.703,16.859,80.009z
		 M49.132,95.472c3.75-4.692,10.592-5.453,15.281-1.703c11.359,9.078,24.142,20.024,32.123,35.06
		c2.813,5.305,0.796,11.885-4.508,14.701c-1.625,0.861-3.368,1.27-5.088,1.27c-3.895,0-7.66-2.098-9.613-5.778
		c-6.029-11.362-16.394-20.194-26.491-28.268C46.145,107.005,45.382,100.163,49.132,95.472z M3.307,273.045
		c5.358-18.895,17.544-31.51,27.563-40.389c4.496-3.983,11.365-3.569,15.349,0.926c3.982,4.494,3.568,11.365-0.926,15.349
		c-11.745,10.408-18.045,19.395-21.065,30.048c-1.357,4.784-5.714,7.906-10.454,7.906c-0.983,0-1.981-0.132-2.973-0.412
		C5.025,284.837,1.67,278.823,3.307,273.045z M51.679,358.692c-2.149,2.6-5.254,3.941-8.384,3.941c-2.44,0-4.895-0.815-6.923-2.497
		c-11.208-9.267-23.583-20.963-30.402-37.425c-2.298-5.547,0.335-11.908,5.884-14.202c5.542-2.311,11.904,0.332,14.204,5.883
		c4.984,12.031,14.563,21.044,24.172,28.994C54.857,347.209,55.507,354.063,51.679,358.692z M82.945,419.671
		c-0.962-12.261-5.489-22.22-14.68-32.285c-4.049-4.435-3.737-11.31,0.699-15.357c4.436-4.052,11.312-3.741,15.359,0.696
		c12.331,13.506,18.971,28.307,20.296,45.248c0.471,5.988-4,11.221-9.987,11.688c-0.289,0.025-0.576,0.034-0.862,0.034
		C88.152,429.694,83.391,425.371,82.945,419.671z M71.5,223.825c-2.854,0-5.704-1.117-7.838-3.334
		c-4.162-4.328-4.028-11.21,0.297-15.374c10.528-10.127,16.158-19.698,18.249-31.029c1.092-5.905,6.778-9.791,12.667-8.717
		c5.905,1.092,9.804,6.762,8.717,12.667c-3.848,20.847-15.858,34.382-24.556,42.75C76.927,222.816,74.211,223.825,71.5,223.825z"></path></g></svg>