<?xml version="1.0" encoding="iso-8859-1"?>
<!DOCTYPE svg PUBLIC "-//W3C//DTD SVG 1.1//EN" "http://www.w3.org/Graphics/SVG/1.1/DTD/svg11.dtd">
<svg 
 version="1.1" xmlns="http://www.w3.org/2000/svg" xmlns:xlink="http://www.w3.org/1999/xlink" x="0px" y="0px" width="512px"
	 height="512px" viewBox="0 0 512 512" style="enable-background:new 0 0 512 512;" xml:space="preserve"
><g id="de95281e9f52527e65bb740c590116b3"><g></g><g fill="#c6c6c6"><path style="display: inline; fill-rule: evenodd; clip-rule: evenodd;" d="M111.192,472.985c19.924,11.503,45.395,4.725,56.897-15.199
		c11.4-19.925,4.622-45.395-15.303-56.795c-19.821-11.502-45.292-4.724-56.794,15.2S91.268,461.586,111.192,472.985z
		 M231.867,506.261c18.794,10.784,42.929,4.416,53.713-14.48c10.886-18.795,4.519-42.827-14.379-53.713
		c-18.794-10.784-42.826-4.313-53.713,14.48C206.602,471.239,213.175,495.375,231.867,506.261z M346.482,472.985
		c17.15,9.859,39.231,4.006,49.091-13.146c9.962-17.151,4.006-39.13-13.146-48.989s-39.13-4.005-48.989,13.146
		C323.477,441.148,329.331,463.023,346.482,472.985z M419.195,344.249c-9.141,15.765-3.595,35.997,12.118,45.138
		c15.816,9.14,35.946,3.594,45.086-12.119c9.141-15.816,3.697-35.945-12.118-45.086
		C448.567,323.092,428.335,328.484,419.195,344.249z M461.508,270.971c13.763,7.908,31.324,3.184,39.232-10.526
		c7.908-13.762,3.184-31.324-10.476-39.232s-31.222-3.184-39.232,10.527C443.124,245.45,447.849,263.012,461.508,270.971z
		 M429.876,156.561c11.708,6.676,26.6,2.67,33.275-8.935c6.676-11.708,2.772-26.6-8.936-33.378
		c-11.708-6.727-26.6-2.722-33.275,8.935C414.162,134.891,418.168,149.783,429.876,156.561z M345.044,71.062
		c10.887,6.367,24.957,2.619,31.324-8.422c6.265-10.938,2.567-25.008-8.422-31.375c-10.988-6.316-25.059-2.567-31.323,8.422
		C330.152,50.675,333.952,64.746,345.044,71.062z M231.353,35.27c8.935,5.187,20.335,2.157,25.573-6.778
		c5.032-8.935,1.951-20.386-6.983-25.47c-8.833-5.187-20.232-2.105-25.47,6.778C219.44,18.735,222.418,30.135,231.353,35.27z
		 M120.538,60.792c7.497,4.365,17.151,1.797,21.567-5.751c4.313-7.549,1.746-17.203-5.854-21.567
		c-7.498-4.365-17.151-1.797-21.465,5.751C110.371,46.824,113.041,56.427,120.538,60.792z M38.582,139.513
		c6.265,3.543,14.173,1.386,17.665-4.776c3.595-6.162,1.541-14.07-4.622-17.613c-6.162-3.594-14.07-1.489-17.665,4.725
		C30.366,128.01,32.522,135.867,38.582,139.513z M21.533,232.304c-4.827-2.773-10.886-1.13-13.762,3.697
		c-2.773,4.776-1.13,10.938,3.697,13.711c4.827,2.773,10.886,1.129,13.762-3.697C28.003,241.188,26.36,235.077,21.533,232.304z
		 M54.295,350.668c-2.773-1.592-6.265-0.668-7.806,2.054c-1.643,2.773-0.616,6.316,2.054,7.908c2.773,1.54,6.265,0.616,7.805-2.105
		C57.993,355.751,56.965,352.208,54.295,350.668z"></path></g></g></svg>