<?xml version="1.0" encoding="UTF-8" standalone="no"?>
<svg width="60px" height="60px" viewBox="0 0 60 60" version="1.1" xmlns="http://www.w3.org/2000/svg" xmlns:xlink="http://www.w3.org/1999/xlink" xmlns:sketch="http://www.bohemiancoding.com/sketch/ns">
    <!-- Generator: Sketch 3.2.2 (9983) - http://www.bohemiancoding.com/sketch -->
    <title>Crosspin</title>
    <desc>Created with Sketch.</desc>
    <defs></defs>
    <g id="stroked" stroke="none" stroke-width="1" fill="none" fill-rule="evenodd" sketch:type="MSPage">
        <g id="Transport" sketch:type="MSLayerGroup" transform="translate(-119.000000, -118.000000)" stroke="#000000" stroke-width="2" stroke-linecap="round" stroke-linejoin="round">
            <g id="Crosspin" transform="translate(128.000000, 121.000000)" sketch:type="MSShapeGroup">
                <path d="M22,42 C22,42 38,24.836556 38,16 C38,7.163444 30.836556,0 22,0 C13.163444,0 6,7.163444 6,16 C6,24.836556 22,42 22,42 Z" id="Oval-1464"></path>
                <circle id="Oval-1465" cx="22" cy="13" r="5"></circle>
                <path d="M17.9862972,42.8183035 L0.924632277,36.2722434" id="Path-3753"></path>
                <path d="M17.9862972,53 L0.924632277,46.4539399" id="Path-3753" transform="translate(9.455465, 49.726970) scale(-1, 1) translate(-9.455465, -49.726970) "></path>
                <path d="M42.9862972,42.8183035 L25.9246323,36.2722434" id="Path-3753" transform="translate(34.455465, 39.545273) scale(-1, 1) translate(-34.455465, -39.545273) "></path>
                <path d="M42.9862972,53 L25.9246323,46.4539399" id="Path-3753"></path>
            </g>
        </g>
    </g>
</svg>